<?xml version="1.0" standalone="no"?>
<!DOCTYPE svg PUBLIC "-//W3C//DTD SVG 20010904//EN"
 "http://www.w3.org/TR/2001/REC-SVG-20010904/DTD/svg10.dtd">
<svg version="1.0" xmlns="http://www.w3.org/2000/svg"
 width="1024.000000pt" height="1024.000000pt" viewBox="0 0 1024.000000 1024.000000"
 preserveAspectRatio="xMidYMid meet">

<g transform="translate(0.000000,1024.000000) scale(0.100000,-0.100000)"
fill="#000000" stroke="none">
<path d="M4270 8145 c-390 -15 -621 -30 -915 -56 -560 -50 -761 -103 -883
-234 -153 -165 -354 -489 -617 -998 -116 -225 -134 -247 -206 -247 -58 0 -66
18 -71 155 -3 103 -8 128 -28 170 -47 95 -152 116 -397 79 -204 -30 -342 -83
-409 -156 l-34 -38 0 -137 c0 -129 1 -138 24 -168 14 -18 47 -42 73 -55 83
-39 177 -49 463 -50 l264 0 -281 -277 c-238 -236 -290 -293 -346 -378 -98
-151 -162 -277 -206 -410 -89 -269 -109 -384 -122 -715 -15 -384 1 -646 56
-916 l25 -123 0 -686 c0 -560 3 -692 14 -718 17 -41 62 -81 105 -96 46 -15
1059 -15 1116 0 54 15 104 54 121 95 11 27 14 111 14 414 0 367 1 381 20 400
20 20 33 20 3064 20 l3043 0 26 -20 26 -21 3 -388 3 -388 28 -36 c57 -75 29
-72 630 -75 356 -2 551 1 577 8 21 6 53 22 70 36 63 53 60 16 60 780 l0 697
25 131 c34 182 43 290 51 601 11 447 -16 701 -101 961 -46 141 -130 314 -209
434 -60 90 -255 315 -309 356 -63 49 -337 296 -337 304 0 6 47 10 113 10 170
0 433 18 521 35 100 19 162 48 182 87 13 25 14 53 8 165 -7 132 -8 136 -37
170 -60 68 -194 118 -412 153 -207 33 -266 35 -317 12 -81 -35 -105 -92 -115
-270 -7 -136 -19 -159 -75 -148 -54 10 -82 49 -208 287 -253 478 -304 563
-468 794 -150 209 -207 256 -367 303 -213 64 -638 104 -1475 142 -378 17
-1417 20 -1780 5z m1890 -234 c526 -26 798 -46 1085 -77 209 -22 250 -47 385
-229 87 -118 273 -397 339 -509 80 -137 211 -403 211 -430 0 -14 -11 -38 -24
-53 -28 -32 -15 -32 -491 -13 -702 29 -4569 20 -5293 -12 -266 -11 -273 -11
-299 8 -53 40 -51 62 18 197 128 250 280 500 467 772 163 234 164 235 438 270
355 45 611 62 1279 85 316 11 1613 4 1885 -9z m-4358 -2350 c131 -17 337 -47
459 -66 122 -19 231 -35 242 -35 65 0 184 -96 264 -212 71 -103 137 -228 127
-238 -5 -5 -100 -4 -219 1 -115 6 -316 9 -445 6 -211 -4 -246 -7 -345 -31
-143 -35 -233 -42 -347 -26 -244 33 -407 126 -452 257 -19 55 -20 94 -5 177
15 90 54 156 109 184 43 23 52 24 210 19 95 -3 265 -18 402 -36z m7241 25 c84
-30 118 -94 125 -233 4 -85 3 -97 -22 -146 -63 -129 -194 -205 -417 -243 -127
-21 -239 -15 -404 22 -106 23 -148 27 -354 31 -129 3 -321 0 -429 -6 -107 -7
-196 -10 -199 -8 -8 8 131 257 175 313 49 63 106 107 165 128 60 21 804 129
1022 149 107 10 302 5 338 -7z m-4413 -95 c109 -12 188 -42 239 -91 70 -68 74
-82 83 -305 5 -110 6 -232 3 -272 -13 -144 -94 -222 -255 -245 -112 -15 -768
-4 -891 16 -207 33 -348 117 -440 264 -49 77 -112 212 -134 284 -42 143 7 257
130 300 67 23 243 48 417 58 165 10 723 4 848 -9z m2068 -6 c67 -8 143 -22
170 -31 103 -35 155 -105 155 -209 1 -76 -21 -139 -96 -290 -49 -99 -71 -132
-127 -186 -80 -79 -197 -141 -304 -164 -125 -25 -371 -37 -691 -33 -296 4
-312 5 -361 27 -60 26 -116 80 -141 136 -16 35 -18 67 -16 283 1 134 7 260 13
281 21 77 81 139 159 161 154 44 954 60 1239 25z m165 -1589 c16 -5 35 -19 43
-31 12 -19 12 -27 0 -64 -54 -152 -259 -360 -429 -436 -195 -86 -347 -96
-1457 -96 -597 0 -891 9 -1028 31 -268 44 -491 207 -610 446 -43 85 -45 98
-23 125 l19 24 614 5 c899 8 2838 5 2871 -4z"/>
</g>
</svg>
