<?xml version="1.0" standalone="no"?>
<!DOCTYPE svg PUBLIC "-//W3C//DTD SVG 20010904//EN"
 "http://www.w3.org/TR/2001/REC-SVG-20010904/DTD/svg10.dtd">
<svg version="1.0" xmlns="http://www.w3.org/2000/svg"
 width="4096.000000pt" height="4096.000000pt" viewBox="0 0 4096.000000 4096.000000"
 preserveAspectRatio="xMidYMid meet">

<g transform="translate(0.000000,4096.000000) scale(0.100000,-0.100000)"
fill="#000000" stroke="none">
<path d="M19895 35829 c-2870 -114 -5600 -1000 -7958 -2583 -2600 -1745 -4615
-4246 -5753 -7139 -1469 -3733 -1414 -7958 151 -11622 944 -2210 2352 -4128
4173 -5687 2015 -1725 4467 -2906 7062 -3402 2601 -497 5285 -320 7780 514
1062 355 2087 827 3042 1403 1832 1104 3405 2567 4642 4317 1255 1774 2124
3814 2530 5940 271 1418 343 2895 211 4330 -358 3878 -2172 7463 -5090 10060
-1264 1125 -2705 2033 -4275 2693 -1875 788 -3924 1195 -5980 1185 -190 0
-430 -5 -535 -9z m1210 -3420 c2629 -135 5117 -1126 7125 -2838 1404 -1198
2518 -2710 3240 -4401 517 -1210 829 -2500 925 -3820 13 -182 34 -684 35 -827
l0 -43 -5975 0 -5975 0 0 -5976 0 -5976 -217 7 c-430 12 -798 37 -1139 75
-2335 265 -4521 1206 -6329 2724 -522 438 -1061 980 -1503 1511 -1183 1420
-2026 3111 -2446 4910 -141 602 -235 1224 -281 1855 -12 171 -35 699 -35 833
l0 37 5975 0 5975 0 0 5976 0 5976 218 -7 c119 -3 303 -10 407 -16z"/>
</g>
</svg>
